<svg width="18" height="18" viewBox="0 0 18 18" fill="none" xmlns="http://www.w3.org/2000/svg">
<path d="M8.99935 0.666992C13.5993 0.666992 17.3327 4.40033 17.3327 9.00033C17.3327 13.6003 13.5993 17.3337 8.99935 17.3337C4.39935 17.3337 0.666016 13.6003 0.666016 9.00033C0.666016 4.40033 4.39935 0.666992 8.99935 0.666992ZM8.99935 15.667C12.6827 15.667 15.666 12.6837 15.666 9.00033C15.666 5.31699 12.6827 2.33366 8.99935 2.33366C5.31602 2.33366 2.33268 5.31699 2.33268 9.00033C2.33268 12.6837 5.31602 15.667 8.99935 15.667ZM9.83268 9.00033H12.3327L8.99935 12.3337L5.66602 9.00033H8.16602V5.66699H9.83268V9.00033Z" fill="#164E83"/>
</svg>
